<?xml version="1.0" encoding="UTF-8" standalone="no"?>
<!-- Created with Inkscape (http://www.inkscape.org/) -->

<svg
   width="160"
   height="40"
   viewBox="0 0 42.333332 10.583333"
   version="1.1"
   id="svg5"
   inkscape:export-filename="logo.png"
   inkscape:export-xdpi="59.710323"
   inkscape:export-ydpi="59.710323"
   inkscape:version="1.2.2 (b0a8486541, 2022-12-01)"
   sodipodi:docname="logo.svg"
   xmlns:inkscape="http://www.inkscape.org/namespaces/inkscape"
   xmlns:sodipodi="http://sodipodi.sourceforge.net/DTD/sodipodi-0.dtd"
   xmlns="http://www.w3.org/2000/svg"
   xmlns:svg="http://www.w3.org/2000/svg">
  <sodipodi:namedview
     id="namedview7"
     pagecolor="#ffffff"
     bordercolor="#000000"
     borderopacity="0.25"
     inkscape:showpageshadow="2"
     inkscape:pageopacity="0.0"
     inkscape:pagecheckerboard="0"
     inkscape:deskcolor="#d1d1d1"
     inkscape:document-units="mm"
     showgrid="false"
     inkscape:zoom="0.98520767"
     inkscape:cx="341.04485"
     inkscape:cy="167.47738"
     inkscape:window-width="1920"
     inkscape:window-height="1011"
     inkscape:window-x="0"
     inkscape:window-y="0"
     inkscape:window-maximized="1"
     inkscape:current-layer="text218" />
  <defs
     id="defs2" />
  <g
     inkscape:label="Capa 1"
     inkscape:groupmode="layer"
     id="layer1">
    <g
       aria-label="ALUMPLASTIC"
       id="text218"
       style="font-size:18.463px;-inkscape-font-specification:'sans-serif, Normal';fill:#ffd5d5;fill-opacity:0.956414;stroke:#000000;stroke-width:0.264583;stroke-opacity:0">
      <path
         id="path380"
         style="fill:#ff0000;stroke-width:0.0795082"
         d="M 6.6320179,3.1838411 V 4.387648 H 7.1792604 V 3.1838411 Z m 0,1.9178291 V 7.2285191 H 9.1488 V 6.7679296 H 7.1792604 V 5.1016702 Z" />
      <path
         id="path382"
         style="fill:#ff0000;stroke-width:0.0795082"
         d="M 9.384374,3.1838411 V 4.3885796 H 9.93441 V 3.1838411 Z m 2.546598,0 v 1.2047385 h 0.549881 V 3.1838411 Z M 9.384374,5.1008933 v 0.6078046 c 0,0.5273685 0.130019,0.9256966 0.390088,1.1947998 0.261878,0.2691012 0.648436,0.4035982 1.159549,0.4035982 0.509307,0 0.894042,-0.1344976 1.154113,-0.4035982 0.26188,-0.2691032 0.392729,-0.6674313 0.392729,-1.1947998 V 5.1008933 h -0.549881 v 0.5400981 c 0,0.4334551 -0.0786,0.7458887 -0.23573,0.9373292 -0.157127,0.1896361 -0.410855,0.2844909 -0.761231,0.2844909 -0.352181,0 -0.606899,-0.094855 -0.764025,-0.2844909 C 10.012859,6.3868801 9.93441,6.0744465 9.93441,5.6409914 V 5.1008933 Z" />
      <path
         id="path384"
         style="fill:#ff0000;stroke-width:0.0795082"
         d="m 13.507629,3.1838411 v 1.2047385 h 0.530936 V 3.6768863 l 0.267564,0.7116933 h 0.468664 L 14.323056,3.1838411 Z m 2.885129,0 -0.454067,1.2047385 h 0.468355 l 0.267563,-0.7116933 v 0.7116933 h 0.533576 V 3.1838411 Z m -2.885129,1.9170522 v 2.1276258 h 0.530936 V 5.1008933 Z m 1.066376,0 0.507641,1.3500895 h 0.549882 L 16.139169,5.1008933 H 15.670195 L 15.355267,5.9363529 15.041892,5.1008933 Z m 2.100604,0 v 2.1276258 h 0.533576 V 5.1008933 Z" />
      <path
         id="path386"
         style="fill:#0000ff;stroke-width:0.0795082"
         d="m 18.294593,3.1838411 v 1.2044274 h 0.547241 V 3.63356 h 0.688089 c 0.254653,0 0.4515,0.065999 0.590568,0.1978396 0.138313,0.1311282 0.207803,0.3167642 0.208553,0.5568689 h 0.577058 C 20.905347,3.9946744 20.788913,3.6961239 20.556699,3.4927122 20.325525,3.2868212 19.983243,3.1838411 19.529923,3.1838411 Z m 0,1.9173633 v 2.1273147 h 0.547241 V 5.6031007 h 0.688089 c 0.45332,0 0.795602,-0.1019915 1.026776,-0.3060758 0.06567,-0.057522 0.122105,-0.1228038 0.169265,-0.1958205 h -0.849745 c -0.100244,0.034719 -0.21562,0.052178 -0.346296,0.052178 h -0.688089 v -0.052178 z" />
      <path
         id="path388"
         style="fill:#0000ff;stroke-width:0.0795082"
         d="m 21.640312,3.1838411 v 1.2039616 h 0.547241 V 3.1838411 Z m 0,1.9178291 v 2.1268489 h 2.516781 V 6.7679296 h -1.96954 V 5.1016702 Z" />
      <path
         id="path390"
         style="fill:#0000ff;stroke-width:0.0795082"
         d="m 25.901774,3.1838411 -0.459813,1.2044274 h 0.523171 l 0.245358,-0.665261 0.246292,0.665261 h 0.524413 L 26.522161,3.1838411 Z m -0.732037,1.9173633 -0.812165,2.1273147 h 0.577058 l 0.368347,-1.0374908 h 1.823257 l 0.368348,1.0374908 h 0.568983 L 27.252796,5.1012044 h -0.532177 l 0.234954,0.6346694 h -1.487368 l 0.234021,-0.6346694 z" />
      <path
         id="path392"
         style="fill:#0000ff;stroke-width:0.0795082"
         d="m 29.894899,3.1106997 c -0.442486,0 -0.790079,0.1029826 -1.042927,0.3088712 -0.251047,0.2058913 -0.376578,0.4876448 -0.376578,0.8452425 0,0.042489 0.0018,0.083531 0.0053,0.1234557 h 0.563236 c -0.01218,-0.05068 -0.01864,-0.1061229 -0.01864,-0.1667809 0,-0.2131131 0.08043,-0.3774571 0.241162,-0.4930452 0.162545,-0.115588 0.392732,-0.1734587 0.69073,-0.1734587 0.171577,0 0.349516,0.024376 0.533733,0.073141 0.184217,0.048761 0.38023,0.1228861 0.587927,0.2222192 V 3.3166137 C 30.87293,3.2479827 30.671451,3.1965714 30.474588,3.1622559 30.277727,3.127944 30.084529,3.1106993 29.894894,3.1106993 Z m -1.00069,1.9905047 c 0.180338,0.116808 0.426989,0.2065218 0.740579,0.268962 l 0.333253,0.064911 c 0.278133,0.055987 0.47763,0.1400589 0.59864,0.2520352 0.12281,0.1119764 0.184326,0.2672045 0.184326,0.4658697 0,0.2275631 -0.0849,0.402844 -0.254672,0.5256558 -0.169769,0.1228112 -0.410892,0.1841735 -0.723339,0.1841735 -0.205891,0 -0.415342,-0.031668 -0.628459,-0.094881 -0.213116,-0.063212 -0.43085,-0.1570788 -0.652995,-0.281696 v 0.5635469 c 0.231177,0.084886 0.454225,0.1489039 0.669146,0.1922483 0.216727,0.043344 0.420864,0.065066 0.612308,0.065066 0.507503,0 0.892235,-0.1011591 1.154112,-0.3034361 0.263686,-0.2022793 0.395525,-0.4992953 0.395525,-0.8912084 0,-0.3287034 -0.09751,-0.5905576 -0.292568,-0.7856108 -0.0852,-0.086783 -0.191388,-0.1620184 -0.318345,-0.2256362 z" />
      <path
         id="path394"
         style="fill:#0000ff;stroke-width:0.0795082"
         d="m 31.615202,3.1838411 v 0.4605895 h 1.435808 v 0.7438379 h 0.549878 V 3.6444306 h 1.435809 V 3.1838411 Z m 1.435808,1.9173633 v 2.1273147 h 0.549878 V 5.1012044 Z" />
      <path
         id="path396"
         style="fill:#0000ff;stroke-width:0.0795082"
         d="M 35.564995,3.1838411 V 4.387648 h 0.54724 V 3.1838411 Z m 0,1.9178291 v 2.1268489 h 0.54724 V 5.1016702 Z" />
      <path
         id="path398"
         style="fill:#0000ff;stroke-width:0.0795082"
         d="m 38.943323,3.1106997 c -0.612249,0 -1.0945,0.1878893 -1.44668,0.5635466 -0.187369,0.1989008 -0.324919,0.4369068 -0.412605,0.7140222 h 0.592589 c 0.05911,-0.1547201 0.138093,-0.2889022 0.237126,-0.4025111 0.245625,-0.2835491 0.59968,-0.4253388 1.062027,-0.4253388 0.234791,0 0.456016,0.042454 0.66371,0.1273375 0.209501,0.084885 0.40635,0.2130774 0.590565,0.3846525 V 3.4953523 C 40.042231,3.3671215 39.840904,3.2714335 39.625981,3.2082217 39.412863,3.1432048 39.185335,3.1106997 38.943323,3.1106997 Z M 36.97006,5.1012044 c -10e-4,0.03594 -0.0021,0.072187 -0.0021,0.1090136 0,0.6483726 0.176112,1.1604665 0.528296,1.5361263 0.35218,0.3738529 0.834425,0.5607515 1.446675,0.5607515 0.238404,0 0.464113,-0.032503 0.67722,-0.097523 0.214928,-0.065019 0.418074,-0.16253 0.609517,-0.2925661 V 6.3453863 c -0.184221,0.1715755 -0.38107,0.2997686 -0.590569,0.3846525 -0.207696,0.084885 -0.428921,0.1273375 -0.66371,0.1273375 -0.462347,0 -0.816402,-0.1408003 -1.062028,-0.4225434 -0.24562,-0.2835516 -0.368348,-0.6918301 -0.368348,-1.224615 0,-0.036971 5.02e-4,-0.073253 0.0015,-0.1090137 z" />
      <path
         id="path378"
         style="fill:#ff0000;stroke-width:0.0795082"
         d="M 3.6825817,3.1838411 3.2226141,4.3884239 H 3.7460963 L 3.9914545,3.7230075 4.2377434,4.3884239 H 4.7620021 L 4.3029655,3.1838411 Z M 2.9507018,5.1008933 2.138381,7.2285191 H 2.7154371 L 3.0839412,6.1910283 H 4.907198 L 5.275545,7.2285191 H 5.8445263 L 5.0336032,5.1008933 H 4.5014253 l 0.235109,0.6349805 H 3.2491683 L 3.4833466,5.1008933 Z" />
    </g>
  </g>
</svg>
